<svg xmlns="http://www.w3.org/2000/svg" width="29.961" height="32.472" viewBox="0 0 29.961 32.472">
  <path id="Path_209" data-name="Path 209" d="M62.865,43.814c-.791,1.391-1.516,2.84-2.245,4.061a.449.449,0,0,0-.076.3c0,.611,1.292.3,1.292.908a2.05,2.05,0,0,1,1.84-.606,2.429,2.429,0,0,0,2.055-.6,1.289,1.289,0,0,1,.753-.162,1.774,1.774,0,0,1,1.449.689,3.574,3.574,0,0,1,1.074,2.065,1.637,1.637,0,0,1-.309.835c-1.676,1.827-5.713.839-7.848,2.665,1.6,2.749,4.947,4.2,6.172,7.015,0,.079.223.531.223.614,0,.608-.069,2.209-.761,2.435a2.131,2.131,0,0,1-1.448.534,1.309,1.309,0,0,1-.527-.075c-1.3-.99-4.881-5.569-6.1-7.091a1.859,1.859,0,0,0-1.369-.683,1.07,1.07,0,0,0-1.07.919,11.858,11.858,0,0,1-.754,3.2c-.314.677-.623,1.291-.918,1.975-.92,2.283-1.45,4.88-3.666,6.335a2.539,2.539,0,0,1-1.221.373c-2.276,0-.914-2.364-2.738-2.058.76-3.657,4.27-6.172,4.187-10.136v-.382c-.151,0-.383-.069-.531-.069-2.588,0-5.03,2.437-7.626,2.437a3.728,3.728,0,0,1-2.6-1.148c-.3-.307-1.06-.61-1.06-.988a3.5,3.5,0,0,1,2.28-2.908,17.688,17.688,0,0,1,2.906-.523c2.663-.614,5.111-1.91,7.845-2.441-.761-3.278-6.1-5.869-6.1-7.7,0-1.144,2.057-1.906,3.05-1.906a2.514,2.514,0,0,1,1.3.305c1.747,1.291,1.9,5.253,4.647,5.253a1.226,1.226,0,0,0,.538-.071c1.906-2.289,2.894-5.106,4.493-7.542a10.245,10.245,0,0,1,1.6-1.983,1.8,1.8,0,0,1,1.6-.613c2.439,0,1.075,2.138,2.29,3.046a17.654,17.654,0,0,0-2.634,3.721" transform="translate(-39.046 -37.047)" fill="#fff"/>
</svg>
