<svg xmlns="http://www.w3.org/2000/svg" width="225.631" height="40" viewBox="0 0 225.631 40">
  <g id="Logo" transform="translate(-39.046 -37.047)">
    <g id="Group_339" data-name="Group 339" transform="translate(39.046 37.047)">
      <path id="Path_209" data-name="Path 209" d="M62.865,43.814c-.791,1.391-1.516,2.84-2.245,4.061a.449.449,0,0,0-.076.3c0,.611,1.292.3,1.292.908a2.05,2.05,0,0,1,1.84-.606,2.429,2.429,0,0,0,2.055-.6,1.289,1.289,0,0,1,.753-.162,1.774,1.774,0,0,1,1.449.689,3.574,3.574,0,0,1,1.074,2.065,1.637,1.637,0,0,1-.309.835c-1.676,1.827-5.713.839-7.848,2.665,1.6,2.749,4.947,4.2,6.172,7.015,0,.079.223.531.223.614,0,.608-.069,2.209-.761,2.435a2.131,2.131,0,0,1-1.448.534,1.309,1.309,0,0,1-.527-.075c-1.3-.99-4.881-5.569-6.1-7.091a1.859,1.859,0,0,0-1.369-.683,1.07,1.07,0,0,0-1.07.919,11.858,11.858,0,0,1-.754,3.2c-.314.677-.623,1.291-.918,1.975-.92,2.283-1.45,4.88-3.666,6.335a2.539,2.539,0,0,1-1.221.373c-2.276,0-.914-2.364-2.738-2.058.76-3.657,4.27-6.172,4.187-10.136v-.382c-.151,0-.383-.069-.531-.069-2.588,0-5.03,2.437-7.626,2.437a3.728,3.728,0,0,1-2.6-1.148c-.3-.307-1.06-.61-1.06-.988a3.5,3.5,0,0,1,2.28-2.908,17.688,17.688,0,0,1,2.906-.523c2.663-.614,5.111-1.91,7.845-2.441-.761-3.278-6.1-5.869-6.1-7.7,0-1.144,2.057-1.906,3.05-1.906a2.514,2.514,0,0,1,1.3.305c1.747,1.291,1.9,5.253,4.647,5.253a1.226,1.226,0,0,0,.538-.071c1.906-2.289,2.894-5.106,4.493-7.542a10.245,10.245,0,0,1,1.6-1.983,1.8,1.8,0,0,1,1.6-.613c2.439,0,1.075,2.138,2.29,3.046a17.654,17.654,0,0,0-2.634,3.721" transform="translate(-39.046 -37.047)" fill="#fff"/>
      <g id="Group_338" data-name="Group 338" transform="translate(40.405 6.191)">
        <path id="Path_210" data-name="Path 210" d="M87.631,44.659H90.2L96.19,62.1,101.936,44.6h1.945L109.626,62.1l5.985-17.446H118.1l-7.481,21.1h-2.005l-5.746-17-5.775,17H95.113Z" transform="translate(-87.631 -44.509)" fill="#fff"/>
        <path id="Path_211" data-name="Path 211" d="M136.6,44.671h15.142v2.124H138.969v7.213H150.4v2.125H138.969v7.361H151.9v2.125H136.6Z" transform="translate(-95.876 -44.521)" fill="#fff"/>
        <path id="Path_212" data-name="Path 212" d="M167.91,44.671h8.9a9.5,9.5,0,0,1,3.18.492,6.241,6.241,0,0,1,2.285,1.36,4.669,4.669,0,0,1,1.345,3.346v.059a5.354,5.354,0,0,1-.284,1.808,4.578,4.578,0,0,1-.761,1.374,5.234,5.234,0,0,1-1.06.985,6.89,6.89,0,0,1-1.208.672,9.238,9.238,0,0,1,1.747.7,5.878,5.878,0,0,1,1.419,1.035,4.567,4.567,0,0,1,.956,1.424,4.742,4.742,0,0,1,.359,1.9v.059a5.293,5.293,0,0,1-.537,2.414,5.031,5.031,0,0,1-1.539,1.8,7.359,7.359,0,0,1-2.405,1.124,11.585,11.585,0,0,1-3.107.389h-9.29Zm8.543,9.307a5.891,5.891,0,0,0,3.475-.939,3.188,3.188,0,0,0,1.329-2.787v-.059a2.969,2.969,0,0,0-1.194-2.473,5.512,5.512,0,0,0-3.432-.925h-6.356v7.183Zm.837,9.516a6.333,6.333,0,0,0,3.761-.987,3.2,3.2,0,0,0,1.373-2.754v-.059a3.011,3.011,0,0,0-1.4-2.649,7.475,7.475,0,0,0-4.15-.942h-6.6v7.391Z" transform="translate(-101.147 -44.521)" fill="#fff"/>
        <path id="Path_213" data-name="Path 213" d="M200.8,44.671h4.609V65.618H200.8Z" transform="translate(-106.684 -44.521)" fill="#fff"/>
        <path id="Path_214" data-name="Path 214" d="M219.834,44.671H228a12.379,12.379,0,0,1,4.5.793,10.628,10.628,0,0,1,3.531,2.2,9.793,9.793,0,0,1,2.29,3.307,10.4,10.4,0,0,1,.808,4.114v.06a10.508,10.508,0,0,1-.808,4.13,9.761,9.761,0,0,1-2.29,3.322,10.812,10.812,0,0,1-3.531,2.214,12.158,12.158,0,0,1-4.5.808h-8.169ZM228,61.459a7.13,7.13,0,0,0,2.574-.449,5.537,5.537,0,0,0,1.99-1.287,6.031,6.031,0,0,0,1.287-1.975,6.669,6.669,0,0,0,.464-2.542v-.061a6.82,6.82,0,0,0-.464-2.543,5.959,5.959,0,0,0-1.287-2.005,5.718,5.718,0,0,0-1.99-1.3A6.925,6.925,0,0,0,228,48.831h-3.56V61.459Z" transform="translate(-109.889 -44.521)" fill="#fff"/>
        <path id="Path_215" data-name="Path 215" d="M254.9,44.671h15.77v4.1H259.443v4.251h9.875v4.1h-9.875v4.4h11.372v4.1H254.9Z" transform="translate(-115.792 -44.521)" fill="#fff"/>
        <path id="Path_216" data-name="Path 216" d="M292.633,44.491h4.25l8.978,21.1h-4.819l-1.915-4.7h-8.857l-1.916,4.7h-4.7Zm4.848,12.329L294.7,50.027l-2.784,6.793Z" transform="translate(-120.634 -44.491)" fill="#fff"/>
      </g>
    </g>
    <g id="Group_341" data-name="Group 341" transform="translate(207.99 69.195)">
      <g id="Group_340" data-name="Group 340" transform="translate(5.241 1.348)">
        <path id="Path_217" data-name="Path 217" d="M297.145,82.747h1.173V78.5h1.622V77.415h-4.418V78.5h1.623Zm-6.345,0h4.059V81.7h-2.895V80.583h2.514V79.54h-2.514V78.458h2.857V77.415H290.8Zm-3.406.091a3.461,3.461,0,0,0,2.278-.845V79.678h-2.315V80.69h1.181v.762a1.868,1.868,0,0,1-1.1.32,1.6,1.6,0,0,1-1.616-1.691v-.016a1.6,1.6,0,0,1,1.531-1.661,1.96,1.96,0,0,1,1.395.541l.738-.892a2.925,2.925,0,0,0-2.095-.731,2.735,2.735,0,0,0-2.794,2.758V80.1a2.668,2.668,0,0,0,2.8,2.742m-9.841-.091h3.892V82.2h-3.291V80.332h2.91v-.547h-2.91V77.964h3.253v-.548h-3.854Zm-4.487-2.429V77.971h1.349c.861,0,1.432.4,1.432,1.158v.015c0,.7-.58,1.173-1.464,1.173Zm-.6,2.429h.6V80.865h1.295c1.135,0,2.095-.593,2.095-1.743v-.016c0-1.051-.792-1.691-2-1.691h-2Zm-3.649.083a2.1,2.1,0,0,0,2.224-2.36V77.415h-.6v3.1c0,1.165-.625,1.76-1.607,1.76a1.573,1.573,0,0,1-1.631-1.8V77.415h-.6v3.1a2.088,2.088,0,0,0,2.216,2.314m-6.117-.547a2.12,2.12,0,0,1-2.1-2.2v-.016a2.094,2.094,0,0,1,2.087-2.186,2.12,2.12,0,0,1,2.1,2.2V80.1a2.1,2.1,0,0,1-2.087,2.186m-.015.556a2.7,2.7,0,0,0,2.726-2.757v-.016a2.719,2.719,0,1,0-5.438.016V80.1a2.675,2.675,0,0,0,2.712,2.742m-7.382-2.7V77.971h1.646c.861,0,1.364.4,1.364,1.052v.015c0,.685-.571,1.1-1.371,1.1Zm-.6,2.612h.6V80.675h1.524l1.546,2.072h.738l-1.637-2.179a1.559,1.559,0,0,0,1.447-1.553V79a1.476,1.476,0,0,0-.411-1.052,2.1,2.1,0,0,0-1.516-.532H254.7Zm-3.5.091a3.225,3.225,0,0,0,2.14-.815V79.9h-2.2v.54h1.623v1.326a2.514,2.514,0,0,1-1.539.533,2.061,2.061,0,0,1-2.111-2.216v-.016a2.084,2.084,0,0,1,2.028-2.186,2.268,2.268,0,0,1,1.623.61l.388-.457a2.811,2.811,0,0,0-1.988-.708,2.674,2.674,0,0,0-2.673,2.758V80.1a2.614,2.614,0,0,0,2.711,2.742" transform="translate(-248.494 -77.324)" fill="#fff"/>
      </g>
      <rect id="Rectangle_26" data-name="Rectangle 26" width="0.692" height="7.852" transform="translate(0)" fill="#fff"/>
    </g>
  </g>
</svg>
