<svg id="menu-icon" xmlns="http://www.w3.org/2000/svg" width="32" height="32" viewBox="0 0 32 32">
  <rect id="Rectangle_30" data-name="Rectangle 30" width="32" height="32" fill="#fff" opacity="0"/>
  <g id="Group_2929" data-name="Group 2929" transform="translate(2.667 14.667)">
    <path id="Path_221" data-name="Path 221" d="M27.333,13.667h-24a1.333,1.333,0,0,1,0-2.667h24a1.333,1.333,0,1,1,0,2.667Z" transform="translate(-2 -11)" fill="#fff"/>
  </g>
  <g id="Group_2930" data-name="Group 2930" transform="translate(2.667 6.667)">
    <path id="Path_222" data-name="Path 222" d="M27.333,7.667h-24A1.333,1.333,0,0,1,3.333,5h24a1.333,1.333,0,1,1,0,2.667Z" transform="translate(-2 -5)" fill="#fff"/>
  </g>
  <g id="Group_2931" data-name="Group 2931" transform="translate(2.667 22.667)">
    <path id="Path_223" data-name="Path 223" d="M27.333,19.667h-24a1.333,1.333,0,1,1,0-2.667h24a1.333,1.333,0,1,1,0,2.667Z" transform="translate(-2 -17)" fill="#fff"/>
  </g>
</svg>
